<svg width="39" height="13" viewBox="0 0 39 13" fill="none" xmlns="http://www.w3.org/2000/svg">
<path d="M0.492 12V0.48H2.572V12H0.492ZM1.484 12V10.352H8.236V12H1.484ZM9.572 12V3.84H11.588V12H9.572ZM9.476 2.496V0.271999H11.668V2.496H9.476ZM13.7283 12V3.84H15.6963V5.76H15.7443V12H13.7283ZM19.4563 12V6.848C19.4563 6.34667 19.3283 5.968 19.0723 5.712C18.8163 5.456 18.4429 5.328 17.9523 5.328C17.5256 5.328 17.1416 5.424 16.8003 5.616C16.4696 5.808 16.2083 6.07467 16.0163 6.416C15.8349 6.75733 15.7443 7.152 15.7443 7.6L15.5363 5.648C15.8136 5.05067 16.2189 4.576 16.7523 4.224C17.2856 3.86133 17.9256 3.68 18.6723 3.68C19.5576 3.68 20.2456 3.93067 20.7362 4.432C21.2376 4.93333 21.4883 5.6 21.4883 6.432V12H19.4563ZM23.5251 12V0.367999H25.5411V12H23.5251ZM28.7891 12L25.0771 7.76L28.6771 3.84H31.1091L26.9491 8.128L27.0611 7.376L31.2691 12H28.7891ZM35.2076 12.16C34.077 12.16 33.1756 11.9253 32.5036 11.456C31.8316 10.976 31.4636 10.3147 31.3996 9.472H33.2396C33.293 9.888 33.4903 10.2027 33.8316 10.416C34.173 10.6293 34.6316 10.736 35.2076 10.736C35.7303 10.736 36.1196 10.656 36.3756 10.496C36.6423 10.3253 36.7756 10.0853 36.7756 9.776C36.7756 9.552 36.701 9.37067 36.5516 9.232C36.4023 9.08267 36.1196 8.96 35.7036 8.864L34.3916 8.56C33.4956 8.368 32.829 8.06933 32.3916 7.664C31.965 7.248 31.7516 6.73067 31.7516 6.112C31.7516 5.35467 32.0396 4.76267 32.6156 4.336C33.2023 3.89867 34.0076 3.68 35.0316 3.68C36.045 3.68 36.8556 3.89867 37.4636 4.336C38.0823 4.76267 38.4236 5.35467 38.4876 6.112H36.6476C36.5943 5.78133 36.4236 5.53067 36.1356 5.36C35.8583 5.18933 35.4743 5.104 34.9836 5.104C34.525 5.104 34.1783 5.17867 33.9436 5.328C33.709 5.46667 33.5916 5.67467 33.5916 5.952C33.5916 6.16533 33.6823 6.34667 33.8636 6.496C34.045 6.63467 34.349 6.75733 34.7756 6.864L36.1836 7.184C36.9836 7.36533 37.5863 7.68 37.9916 8.128C38.4076 8.576 38.6156 9.104 38.6156 9.712C38.6156 10.4907 38.317 11.0933 37.7196 11.52C37.1223 11.9467 36.285 12.16 35.2076 12.16Z" fill="#633CFF"/>
</svg>
